# xmcd
#
# Track frame offsets:
#	150
#	13355
#	29920
#	42455
#	55280
#	64580
#	79117
#	91430
#	104875
#	116107
#	129282
#	139690
#	149657
#
# Disc length: 2128 seconds
#
# Revision: 0
# Processed by: cddbd v1.4PL0 Copyright (c) Steve Scherf et al.
# Submitted via: EasyCDDAExtractor 4.6.9.1
#
DISCID=cb084e0d
DTITLE=Union Springs - Ten Past Midnight
DYEAR=1992
DGENRE=Bluegrass
TTITLE0=Someday
TTITLE1=Living In These Troubled Times
TTITLE2=Ten Past Midnight
TTITLE3=The Road That I Must Take
TTITLE4=My Dixie Home
TTITLE5=Raining In L.A.
TTITLE6=A Better Man
TTITLE7=Nobody's Child
TTITLE8=Crying
TTITLE9=They're At REst Together
TTITLE10=A Place Called Heaven
TTITLE11=A Faded Picture
TTITLE12=Let's Say Goodbye
EXTD=
EXTT0=
EXTT1=
EXTT2=
EXTT3=
EXTT4=
EXTT5=
EXTT6=
EXTT7=
EXTT8=
EXTT9=
EXTT10=
EXTT11=
EXTT12=
PLAYORDER=
